<svg aria-hidden="true" style="position: absolute; width: 0; height: 0; overflow: hidden;" version="1.1" xmlns="http://www.w3.org/2000/svg" xmlns:xlink="http://www.w3.org/1999/xlink">
<defs>
<symbol id="icon-menu-hamburger" viewBox="0 0 47 32">
<path d="M-0.222 2.077c0 1.205 0.977 2.182 2.182 2.182h42.965c1.205 0 2.182-0.977 2.182-2.182s-0.977-2.182-2.182-2.182h-42.965c-1.205 0-2.182 0.977-2.182 2.182zM-0.222 15.615c0 1.205 0.977 2.182 2.182 2.182h42.965c1.205 0 2.182-0.977 2.182-2.182s-0.977-2.182-2.182-2.182h-42.965c-1.205 0-2.182 0.977-2.182 2.182zM-0.222 29.154c0 1.205 0.977 2.182 2.182 2.182h42.965c1.205 0 2.182-0.977 2.182-2.182s-0.977-2.182-2.182-2.182h-42.965c-1.205 0-2.182 0.977-2.182 2.182z"></path>
</symbol>
<symbol id="icon-align-justify-mob" viewBox="0 0 32 32">
<path stroke-linejoin="round" stroke-linecap="round" stroke-miterlimit="4" stroke-width="2" d="M28 13.333h-24M28 8h-24M28 18.667h-24M28 24h-24"></path>
</symbol>
<symbol id="icon-baseline-error-outline" viewBox="0 0 32 32">
<path d="M14.667 20h2.667v2.667h-2.667v-2.667zM14.667 9.333h2.667v8h-2.667v-8zM15.987 2.667c-7.36 0-13.32 5.973-13.32 13.333s5.96 13.333 13.32 13.333c7.373 0 13.347-5.973 13.347-13.333s-5.973-13.333-13.347-13.333zM16 26.667c-5.893 0-10.667-4.773-10.667-10.667s4.773-10.667 10.667-10.667 10.667 4.773 10.667 10.667-4.773 10.667-10.667 10.667z"></path>
</symbol>
<symbol id="icon-check" viewBox="0 0 20 20">
<path d="M0 11l2-2 5 5 11-11 2 2-13 13z"></path>
</symbol>
<symbol id="icon-close-mob" viewBox="0 0 32 32">
<path stroke-linejoin="round" stroke-linecap="round" stroke-miterlimit="4" stroke-width="2" d="M24 8l-16 16M8 8l16 16"></path>
</symbol>
<symbol id="close" viewBox="0 0 32 32">
<path d="M32 3.224l-3.224-3.224-12.776 12.776-12.776-12.776-3.224 3.224 12.776 12.776-12.776 12.776 3.224 3.224 12.776-12.776 12.776 12.776 3.224-3.224-12.776-12.776 12.776-12.776z"></path>
</symbol>
<symbol id="icon-close-tablet" viewBox="0 0 32 32">
<path stroke-linejoin="round" stroke-linecap="round" stroke-miterlimit="4" stroke-width="2.4" d="M24 8l-16 16M8 8l16 16"></path>
</symbol>
<symbol id="icon-facebook-logo-desk" viewBox="0 0 32 32">
<path d="M29 16c0-7.18-5.82-13-13-13s-13 5.82-13 13c0 7.18 5.82 13 13 13v0c7.177-0.007 12.993-5.823 13-12.999v-0.001zM17 26.95v-7.95h3c0.552 0 1-0.448 1-1s-0.448-1-1-1v0h-3v-3c0-1.105 0.895-2 2-2v0h2c0.552 0 1-0.448 1-1s-0.448-1-1-1v0h-2c-2.206 0.007-3.993 1.794-4 3.999v3.001h-3c-0.552 0-1 0.448-1 1s0.448 1 1 1v0h3v7.95c-5.629-0.529-10-5.231-10-10.954 0-6.075 4.925-11 11-11s11 4.925 11 11c0 5.723-4.371 10.425-9.956 10.951l-0.044 0.003z"></path>
</symbol>
<symbol id="icon-facebook-logo-mob" viewBox="0 0 32 32">
<path d="M29 16c0-7.18-5.82-13-13-13s-13 5.82-13 13c0 7.18 5.82 13 13 13v0c7.177-0.007 12.993-5.823 13-12.999v-0.001zM17 26.95v-7.95h3c0.552 0 1-0.448 1-1s-0.448-1-1-1v0h-3v-3c0-1.105 0.895-2 2-2v0h2c0.552 0 1-0.448 1-1s-0.448-1-1-1v0h-2c-2.206 0.007-3.993 1.794-4 3.999v3.001h-3c-0.552 0-1 0.448-1 1s0.448 1 1 1v0h3v7.95c-5.629-0.529-10-5.231-10-10.954 0-6.075 4.925-11 11-11s11 4.925 11 11c0 5.723-4.371 10.425-9.956 10.951l-0.044 0.003z"></path>
</symbol>
<symbol id="icon-facebook-logo-tablet" viewBox="0 0 32 32">
<path d="M29 16c0-7.18-5.82-13-13-13s-13 5.82-13 13c0 7.18 5.82 13 13 13v0c7.177-0.007 12.993-5.823 13-12.999v-0.001zM17 26.95v-7.95h3c0.552 0 1-0.448 1-1s-0.448-1-1-1v0h-3v-3c0-1.105 0.895-2 2-2v0h2c0.552 0 1-0.448 1-1s-0.448-1-1-1v0h-2c-2.206 0.007-3.993 1.794-4 3.999v3.001h-3c-0.552 0-1 0.448-1 1s0.448 1 1 1v0h3v7.95c-5.629-0.529-10-5.231-10-10.954 0-6.075 4.925-11 11-11s11 4.925 11 11c0 5.723-4.371 10.425-9.956 10.951l-0.044 0.003z"></path>
</symbol>
<symbol id="icon-instagram-logo-desk" viewBox="0 0 32 32">
<path d="M16 10c-3.314 0-6 2.686-6 6s2.686 6 6 6v0c3.314 0 6-2.686 6-6s-2.686-6-6-6v0zM16 20c-2.209 0-4-1.791-4-4s1.791-4 4-4c2.209 0 4 1.791 4 4v0c-0.007 2.206-1.794 3.993-3.999 4h-0.001zM21.5 3.5h-11c-3.866 0-7 3.134-7 7v0 11c0 3.866 3.134 7 7 7v0h11c3.866 0 7-3.134 7-7v0-11c0-3.866-3.134-7-7-7v0zM26.5 21.5c0 2.761-2.239 5-5 5v0h-11c-2.761 0-5-2.239-5-5v0-11c0-2.761 2.239-5 5-5v0h11c2.761 0 5 2.239 5 5v0 11zM24 9.5c0 0.828-0.672 1.5-1.5 1.5s-1.5-0.672-1.5-1.5v0c0-0.828 0.672-1.5 1.5-1.5s1.5 0.672 1.5 1.5v0z"></path>
</symbol>
<symbol id="icon-instagram-logo-mob" viewBox="0 0 32 32">
<path d="M16 10c-3.314 0-6 2.686-6 6s2.686 6 6 6v0c3.314 0 6-2.686 6-6s-2.686-6-6-6v0zM16 20c-2.209 0-4-1.791-4-4s1.791-4 4-4c2.209 0 4 1.791 4 4v0c-0.007 2.206-1.794 3.993-3.999 4h-0.001zM21.501 3.499h-11c-0 0-0.001 0-0.001 0-3.866 0-7 3.134-7 7 0 0 0 0.001 0 0.001v-0 10.999c0 3.866 3.134 7 7 7 0 0 0.001 0 0.001 0h10.999c3.866 0 7-3.134 7-7v0-10.999c-0.001-3.865-3.134-6.999-7-6.999v0zM26.501 21.499c-0.001 2.761-2.239 4.999-5 5h-11c-2.762 0-5-2.238-5.001-5v-10.999c0.001-2.761 2.239-4.999 5-4.999 0 0 0 0 0 0h11.001c2.761 0 5 2.239 5 5v0 10.999zM24 9.501c0 0.012 0.001 0.027 0.001 0.041 0 0.829-0.672 1.501-1.501 1.501s-1.501-0.672-1.501-1.501c0-0.015 0-0.029 0.001-0.044l-0 0.002c0.023-0.811 0.686-1.459 1.5-1.459s1.477 0.648 1.5 1.457l0 0.002z"></path>
</symbol>
<symbol id="icon-instagram-logo-tablet" viewBox="0 0 32 32">
<path d="M16 10c-3.314 0-6 2.686-6 6s2.686 6 6 6v0c3.314 0 6-2.686 6-6s-2.686-6-6-6v0zM16 20c-2.209 0-4-1.791-4-4s1.791-4 4-4c2.209 0 4 1.791 4 4v0c-0.007 2.206-1.794 3.993-3.999 4h-0.001zM21.5 3.5h-11c-3.866 0-7 3.134-7 7v0 11c0 3.866 3.134 7 7 7v0h11c3.866 0 7-3.134 7-7v0-11c0-3.866-3.134-7-7-7v0zM26.5 21.5c0 2.761-2.239 5-5 5v0h-11c-2.761 0-5-2.239-5-5v0-11c0-2.761 2.239-5 5-5v0h11c2.761 0 5 2.239 5 5v0 11zM24 9.5c0 0.828-0.672 1.5-1.5 1.5s-1.5-0.672-1.5-1.5v0c0-0.828 0.672-1.5 1.5-1.5s1.5 0.672 1.5 1.5v0z"></path>
</symbol>
<symbol id="icon-line-desk" viewBox="0 0 960 32">
<path stroke-linejoin="miter" stroke-linecap="butt" stroke-miterlimit="4" stroke-width="32" d="M0 16h960"></path>
</symbol>
<symbol id="icon-line-mob" viewBox="0 0 480 32">
<path stroke-linejoin="miter" stroke-linecap="butt" stroke-miterlimit="4" stroke-width="16" d="M0 16h480"></path>
</symbol>
<symbol id="icon-line-price-mob" viewBox="0 0 10976 32">
<path stroke-linejoin="miter" stroke-linecap="butt" stroke-miterlimit="4" stroke-width="32" d="M0 16h10976"></path>
</symbol>
<symbol id="icon-line-price-desk" viewBox="0 0 35072 32">
<path stroke-linejoin="miter" stroke-linecap="butt" stroke-miterlimit="4" stroke-width="32" d="M0 16h35072"></path>
</symbol>
<symbol id="icon-line-price-tablet" viewBox="0 0 22528 32">
<path stroke-linejoin="miter" stroke-linecap="butt" stroke-miterlimit="4" stroke-width="32" d="M0 16h22528"></path>
</symbol>
<symbol id="icon-line-tablet" viewBox="0 0 960 32">
<path stroke-linejoin="miter" stroke-linecap="butt" stroke-miterlimit="4" stroke-width="32" d="M0 16h960"></path>
</symbol>
<symbol id="icon-logo-desk" viewBox="0 0 241 32">
<path d="M0 31.964v-31.964h5.992l14.795 10.372h0.226l14.795-10.372h5.992v31.964h-7.153v-23.023l-10.148 6.795v16.228h-7.153v-16.228l-10.193-6.795v23.023h-7.153zM48.514 31.964v-31.964h7.153v31.964h-7.153zM62.364 31.964v-31.964h7.243l22.62 22.978v-22.978h7.153v31.964h-7.24l-22.626-23.023v23.023h-7.153zM106.076 31.964v-31.964h7.153v31.964h-7.153zM119.927 31.964v-31.964h5.992l14.797 10.372h0.224l14.797-10.372h5.992v31.964h-7.153v-23.023l-10.15 6.795v16.228h-7.153v-16.228l-10.193-6.795v23.023h-7.153zM165.76 31.964l14.394-31.964h11.042l14.396 31.964h-7.78l-3.040-6.75h-18.195l-3.040 6.75h-7.778zM179.172 19.401h13.009l-6.214-13.811h-0.584l-6.212 13.813zM209.623 31.964v-31.964h7.153v26.153h23.381v5.811h-30.534z"></path>
</symbol>
<symbol id="icon-logo-mob" viewBox="0 0 200 32">
<path d="M0 28v-28h4.988l12.324 9.086h0.186l12.324-9.086h4.988v28h-5.956v-20.168l-8.454 5.952v14.216h-5.954v-14.216l-8.49-5.952v20.168h-5.956zM40.402 28v-28h5.958v28h-5.96zM51.936 28v-28h6.032l18.84 20.128v-20.128h5.956v28h-6.032l-18.84-20.168v20.168h-5.956zM88.34 28v-28h5.956v28h-5.956zM99.874 28v-28h4.99l12.322 9.086h0.186l12.324-9.086h4.99v28h-5.958v-20.168l-8.452 5.952v14.216h-5.956v-14.216l-8.488-5.952v20.168h-5.958zM138.044 28l11.988-28h9.196l11.988 28h-6.48l-2.53-5.914h-15.152l-2.534 5.914h-6.48zM149.212 16.996h10.834l-5.174-12.1h-0.484l-5.176 12.1zM174.572 28v-28h5.956v22.908h19.472v5.092h-25.428z"></path>
</symbol>
<symbol id="icon-logo-tablet" viewBox="0 0 241 32">
<path d="M0 31.964v-31.964h5.992l14.795 10.372h0.226l14.795-10.372h5.992v31.964h-7.153v-23.023l-10.148 6.795v16.228h-7.153v-16.228l-10.193-6.795v23.023h-7.153zM48.514 31.964v-31.964h7.153v31.964h-7.153zM62.364 31.964v-31.964h7.243l22.62 22.978v-22.978h7.153v31.964h-7.24l-22.626-23.023v23.023h-7.153zM106.076 31.964v-31.964h7.153v31.964h-7.153zM119.927 31.964v-31.964h5.992l14.797 10.372h0.224l14.797-10.372h5.992v31.964h-7.153v-23.023l-10.15 6.795v16.228h-7.153v-16.228l-10.193-6.795v23.023h-7.153zM165.76 31.964l14.394-31.964h11.042l14.396 31.964h-7.78l-3.040-6.75h-18.195l-3.040 6.75h-7.778zM179.172 19.401h13.009l-6.214-13.811h-0.584l-6.212 13.813zM209.623 31.964v-31.964h7.153v26.153h23.381v5.811h-30.534z"></path>
</symbol>
<symbol id="icon-youtube-logo-desk" viewBox="0 0 32 32">
<path d="M20.55 15.162l-6-4c-0.158-0.102-0.35-0.162-0.556-0.162-0.171 0-0.333 0.041-0.475 0.115l0.006-0.003c-0.315 0.173-0.525 0.502-0.525 0.88 0 0.003 0 0.005 0 0.008v-0 8c-0 0.002-0 0.005-0 0.008 0 0.378 0.21 0.707 0.52 0.877l0.005 0.003c0.148 0.074 0.31 0.112 0.475 0.112 0.195-0.002 0.386-0.058 0.55-0.162l6-4c0.275-0.181 0.454-0.488 0.454-0.838s-0.179-0.656-0.45-0.835l-0.004-0.002zM15 18.138v-4.275l3.2 2.138-3.2 2.138zM29.288 8.725c-0.241-0.944-0.915-1.692-1.793-2.031l-0.020-0.007c-4.275-1.65-11.1-1.637-11.475-1.637s-7.2-0.013-11.475 1.637c-0.897 0.346-1.571 1.094-1.808 2.017l-0.004 0.020c-0.326 1.238-0.713 3.512-0.713 7.275s0.387 6.038 0.712 7.275c0.241 0.944 0.915 1.692 1.793 2.031l0.020 0.007c4.1 1.587 10.526 1.638 11.388 1.638h0.174c0.862 0 7.288-0.050 11.388-1.638 0.898-0.346 1.571-1.094 1.808-2.017l0.004-0.020c0.326-1.238 0.713-3.512 0.713-7.275s-0.387-6.038-0.712-7.275zM27.35 22.776c-0.078 0.31-0.296 0.556-0.581 0.672l-0.007 0.002c-3.962 1.526-10.687 1.5-10.762 1.5h-0.013c-0.062 0-6.787 0.026-10.75-1.5-0.292-0.118-0.509-0.365-0.586-0.668l-0.001-0.007c-0.3-1.138-0.65-3.226-0.65-6.776s0.35-5.638 0.65-6.775c0.077-0.31 0.295-0.557 0.581-0.673l0.007-0.002c3.813-1.462 10.212-1.499 10.738-1.499h0.025c0.075 0 6.8-0.026 10.762 1.499 0.292 0.118 0.51 0.365 0.586 0.668l0.001 0.007c0.301 1.138 0.65 3.225 0.65 6.775s-0.35 5.638-0.65 6.775z"></path>
</symbol>
<symbol id="icon-youtube-logo-mob" viewBox="0 0 32 32">
<path d="M20.55 15.162l-6-4c-0.158-0.102-0.35-0.162-0.557-0.162-0.171 0-0.332 0.041-0.474 0.114l0.006-0.003c-0.315 0.173-0.525 0.502-0.525 0.88 0 0.003 0 0.006 0 0.009v-0 8c-0 0.002-0 0.005-0 0.007 0 0.378 0.21 0.708 0.521 0.877l0.005 0.003c0.138 0.071 0.301 0.113 0.474 0.113h0c0.204-0.002 0.394-0.062 0.554-0.165l-0.004 0.003 6-4c0.275-0.181 0.454-0.489 0.454-0.838s-0.179-0.657-0.45-0.835l-0.004-0.002zM15 18.137v-4.274l3.2 2.137-3.2 2.137zM29.288 8.725c-0.241-0.943-0.915-1.691-1.793-2.030l-0.020-0.007c-4.275-1.65-11.101-1.638-11.475-1.638s-7.2-0.013-11.474 1.638c-0.898 0.345-1.572 1.093-1.809 2.016l-0.004 0.020c-0.323 1.238-0.712 3.513-0.712 7.275s0.389 6.038 0.712 7.275c0.241 0.943 0.915 1.691 1.793 2.030l0.020 0.007c4.101 1.589 10.526 1.638 11.387 1.638h0.176c0.862 0 7.287-0.050 11.387-1.638 0.897-0.345 1.571-1.093 1.808-2.016l0.004-0.020c0.325-1.238 0.712-3.513 0.712-7.275s-0.389-6.038-0.712-7.275zM27.349 22.775c-0.078 0.31-0.296 0.556-0.581 0.672l-0.007 0.002c-3.962 1.526-10.687 1.501-10.762 1.501h-0.011c-0.064 0-6.789 0.025-10.751-1.499-0.292-0.118-0.51-0.365-0.586-0.668l-0.001-0.007c-0.301-1.138-0.65-3.226-0.65-6.777 0-3.549 0.35-5.637 0.65-6.774 0.078-0.31 0.296-0.556 0.581-0.672l0.007-0.002c3.813-1.463 10.213-1.501 10.737-1.501h0.026c0.075 0 6.8-0.025 10.762 1.499 0.292 0.118 0.51 0.365 0.586 0.668l0.001 0.007c0.301 1.138 0.65 3.226 0.65 6.776s-0.35 5.638-0.65 6.775z"></path>
</symbol>
<symbol id="icon-youtube-logo-tablet" viewBox="0 0 32 32">
<path d="M20.55 15.162l-6-4c-0.158-0.102-0.35-0.162-0.556-0.162-0.171 0-0.333 0.041-0.475 0.115l0.006-0.003c-0.315 0.173-0.525 0.502-0.525 0.88 0 0.003 0 0.005 0 0.008v-0 8c-0 0.002-0 0.005-0 0.008 0 0.378 0.21 0.707 0.52 0.877l0.005 0.003c0.148 0.074 0.31 0.112 0.475 0.112 0.195-0.002 0.386-0.058 0.55-0.162l6-4c0.275-0.181 0.454-0.488 0.454-0.838s-0.179-0.656-0.45-0.835l-0.004-0.002zM15 18.138v-4.275l3.2 2.138-3.2 2.138zM29.288 8.725c-0.241-0.944-0.915-1.692-1.793-2.031l-0.020-0.007c-4.275-1.65-11.1-1.637-11.475-1.637s-7.2-0.013-11.475 1.637c-0.897 0.346-1.571 1.094-1.808 2.017l-0.004 0.020c-0.326 1.238-0.713 3.512-0.713 7.275s0.387 6.038 0.712 7.275c0.241 0.944 0.915 1.692 1.793 2.031l0.020 0.007c4.1 1.587 10.526 1.638 11.388 1.638h0.174c0.862 0 7.288-0.050 11.388-1.638 0.898-0.346 1.571-1.094 1.808-2.017l0.004-0.020c0.326-1.238 0.713-3.512 0.713-7.275s-0.387-6.038-0.712-7.275zM27.35 22.776c-0.078 0.31-0.296 0.556-0.581 0.672l-0.007 0.002c-3.962 1.526-10.687 1.5-10.762 1.5h-0.013c-0.062 0-6.787 0.026-10.75-1.5-0.292-0.118-0.509-0.365-0.586-0.668l-0.001-0.007c-0.3-1.138-0.65-3.226-0.65-6.776s0.35-5.638 0.65-6.775c0.077-0.31 0.295-0.557 0.581-0.673l0.007-0.002c3.813-1.462 10.212-1.499 10.738-1.499h0.025c0.075 0 6.8-0.026 10.762 1.499 0.292 0.118 0.51 0.365 0.586 0.668l0.001 0.007c0.301 1.138 0.65 3.225 0.65 6.775s-0.35 5.638-0.65 6.775z"></path>
</symbol>
<symbol id="icon-align-justify-tablet" viewBox="0 0 32 32">
<path stroke-linejoin="round" stroke-linecap="round" stroke-miterlimit="4" stroke-width="2.4" d="M28 13.334h-24M28 8h-24M28 18.666h-24M28 24h-24"></path>
</symbol>



    <symbol id="icon-x" viewBox="0 0 32 32">
<path fill="none" stroke="#0a224a" style="stroke: var(--color1, #0a224a)" stroke-linejoin="round" stroke-linecap="round" stroke-miterlimit="4" stroke-width="2.4" d="M24 8l-16 16"></path>
<path fill="none" stroke="#0a224a" style="stroke: var(--color1, #0a224a)" stroke-linejoin="round" stroke-linecap="round" stroke-miterlimit="4" stroke-width="2.4" d="M8 8l16 16"></path>
</symbol>
</defs>
</svg>
